# xmcd
#
# Track frame offsets:
#	150
#	18437
#	35683
#	55449
#	70592
#	89230
#	104769
#	122018
#	139027
#	157314
#	174560
#	194326
#	209469
#	228107
#	243646
#	260895
#
# Disc length: 3705 seconds
#
# Revision: 1
# Processed by: cddbd v1.5.2PL0 Copyright (c) Steve Scherf et al.
# Submitted via: audiograbber 1.83.01
#
DISCID=f80e7710
DTITLE=Compilation - CB60408
DYEAR=2009
DGENRE=Country
TTITLE0=Urban, Keith - Kiss A Girl
TTITLE1=Underwood, Carrie - Home Sweet Home
TTITLE2=Paisley, Brad - Then
TTITLE3=Wilson, Gretchen - Earrings Song, The
TTITLE4=Love and Theft - Runaway
TTITLE5=Messina, Jo Dee - Shine
TTITLE6=Trailer Choir - What Would You Say
TTITLE7=Strait, George and Patty Loveless - House of Cash
TTITLE8=Urban, Keith - Kiss A Girl
TTITLE9=Underwood, Carrie - Home Sweet Home
TTITLE10=Paisley, Brad - Then
TTITLE11=Wilson, Gretchen - Earrings Song, The
TTITLE12=Love and Theft - Runaway
TTITLE13=Messina, Jo Dee - Shine
TTITLE14=Trailer Choir - What Would You Say
TTITLE15=Strait, George and Patty Loveless - House of Cash
EXTD=
EXTT0=
EXTT1=
EXTT2=
EXTT3=
EXTT4=
EXTT5=
EXTT6=
EXTT7=
EXTT8=
EXTT9=
EXTT10=
EXTT11=
EXTT12=
EXTT13=
EXTT14=
EXTT15=
PLAYORDER=
